<?xml version="1.0" encoding="UTF-8" standalone="no"?>
<!-- Generator: Adobe Illustrator 24.0.0, SVG Export Plug-In . SVG Version: 6.00 Build 0)  -->

<svg
   version="1.1"
   id="Layer_2"
   x="0px"
   y="0px"
   viewBox="0 0 512 512"
   enable-background="new 0 0 512 512"
   xml:space="preserve"
   sodipodi:docname="hamburger.svg"
   inkscape:export-filename="hamburger.svg"
   inkscape:export-xdpi="96"
   inkscape:export-ydpi="96"
   inkscape:version="1.2 (dc2aedaf03, 2022-05-15)"
   xmlns:inkscape="http://www.inkscape.org/namespaces/inkscape"
   xmlns:sodipodi="http://sodipodi.sourceforge.net/DTD/sodipodi-0.dtd"
   xmlns="http://www.w3.org/2000/svg"
   xmlns:svg="http://www.w3.org/2000/svg"><defs
   id="defs37"><inkscape:path-effect
   effect="fillet_chamfer"
   id="path-effect918"
   is_visible="true"
   lpeversion="1"
   nodesatellites_param="F,0,0,1,0,20,0,1 @ F,0,0,1,0,20,0,1 @ F,0,0,1,0,20,0,1 @ F,0,0,1,0,20,0,1"
   unit="px"
   method="auto"
   mode="F"
   radius="20"
   chamfer_steps="1"
   flexible="false"
   use_knot_distance="true"
   apply_no_radius="true"
   apply_with_radius="true"
   only_selected="false"
   hide_knots="false" /><inkscape:path-effect
   effect="fillet_chamfer"
   id="path-effect916"
   is_visible="true"
   lpeversion="1"
   nodesatellites_param="F,0,0,1,0,20,0,1 @ F,0,0,1,0,20,0,1 @ F,0,0,1,0,20,0,1 @ F,0,0,1,0,20,0,1"
   unit="px"
   method="auto"
   mode="F"
   radius="20"
   chamfer_steps="1"
   flexible="false"
   use_knot_distance="true"
   apply_no_radius="true"
   apply_with_radius="true"
   only_selected="false"
   hide_knots="false" /><inkscape:path-effect
   effect="fillet_chamfer"
   id="path-effect914"
   is_visible="true"
   lpeversion="1"
   nodesatellites_param="F,0,0,1,0,20,0,1 @ F,0,0,1,0,20,0,1 @ F,0,0,1,0,20,0,1 @ F,0,0,1,0,20,0,1"
   unit="px"
   method="auto"
   mode="F"
   radius="20"
   chamfer_steps="1"
   flexible="false"
   use_knot_distance="true"
   apply_no_radius="true"
   apply_with_radius="true"
   only_selected="false"
   hide_knots="false" /><inkscape:path-effect
   effect="fillet_chamfer"
   id="path-effect912"
   is_visible="true"
   lpeversion="1"
   nodesatellites_param="F,0,0,1,0,20,0,1 @ F,0,0,1,0,20,0,1 @ F,0,0,1,0,20,0,1 @ F,0,0,1,0,20,0,1"
   unit="px"
   method="auto"
   mode="F"
   radius="20"
   chamfer_steps="1"
   flexible="false"
   use_knot_distance="true"
   apply_no_radius="true"
   apply_with_radius="true"
   only_selected="false"
   hide_knots="false" /><inkscape:path-effect
   effect="fillet_chamfer"
   id="path-effect910"
   is_visible="true"
   lpeversion="1"
   nodesatellites_param="F,0,0,1,0,20,0,1 @ F,0,0,1,0,20,0,1 @ F,0,0,1,0,20,0,1 @ F,0,0,1,0,20,0,1"
   unit="px"
   method="auto"
   mode="F"
   radius="20"
   chamfer_steps="1"
   flexible="false"
   use_knot_distance="true"
   apply_no_radius="true"
   apply_with_radius="true"
   only_selected="false"
   hide_knots="false" /><inkscape:path-effect
   effect="fillet_chamfer"
   id="path-effect908"
   is_visible="true"
   lpeversion="1"
   nodesatellites_param="F,0,0,1,0,20,0,1 @ F,0,0,1,0,20,0,1 @ F,0,0,1,0,20,0,1 @ F,0,0,1,0,20,0,1"
   unit="px"
   method="auto"
   mode="F"
   radius="20"
   chamfer_steps="1"
   flexible="false"
   use_knot_distance="true"
   apply_no_radius="true"
   apply_with_radius="true"
   only_selected="false"
   hide_knots="false" />
	
	
	

		
		
	
		
		
	
		
		
	
			
		
			
		
			
		
			
		
			
		
			
		</defs><sodipodi:namedview
   id="namedview35"
   pagecolor="#ffffff"
   bordercolor="#000000"
   borderopacity="0.25"
   inkscape:showpageshadow="2"
   inkscape:pageopacity="0.0"
   inkscape:pagecheckerboard="0"
   inkscape:deskcolor="#d1d1d1"
   showgrid="false"
   inkscape:zoom="1.1241893"
   inkscape:cx="162.33921"
   inkscape:cy="261.07703"
   inkscape:window-width="1920"
   inkscape:window-height="1001"
   inkscape:window-x="-9"
   inkscape:window-y="-9"
   inkscape:window-maximized="1"
   inkscape:current-layer="Layer_2" />
<rect
   x="169.60001"
   y="34.617851"
   fill="#6E83B7"
   width="307.79999"
   height="90"
   id="rect2"
   style="fill:#1bae70;fill-opacity:1;stroke-width:0.9"
   inkscape:path-effect="#path-effect910"
   d="m 189.60001,34.617851 h 267.79998 a 20,20 45 0 1 20,20 v 49.999999 a 20,20 135 0 1 -20,20 l -267.79998,0 a 20,20 45 0 1 -20,-20 V 54.617851 a 20,20 135 0 1 20,-20 z" /><rect
   x="34.599998"
   y="34.617851"
   fill="#6E83B7"
   width="90"
   height="90"
   id="rect6"
   style="fill:#1bae70;fill-opacity:1;stroke-width:0.9"
   inkscape:path-effect="#path-effect908"
   d="M 54.599998,34.617851 H 104.6 a 20,20 45 0 1 20,20 v 49.999999 a 20,20 135 0 1 -20,20 H 54.599998 a 20,20 45 0 1 -20,-20 V 54.617851 a 20,20 135 0 1 20,-20 z" /><rect
   x="169.60001"
   y="211.17804"
   fill="#6E83B7"
   width="307.79999"
   height="90"
   id="rect12"
   style="fill:#1bae70;fill-opacity:1;stroke-width:0.9"
   inkscape:path-effect="#path-effect914"
   d="m 189.60001,211.17804 267.79998,0 a 20,20 45 0 1 20,20 v 50 a 20,20 135 0 1 -20,20 H 189.60001 a 20,20 45 0 1 -20,-20 v -50 a 20,20 135 0 1 20,-20 z" /><rect
   x="34.599998"
   y="211.17804"
   fill="#6E83B7"
   width="90"
   height="90"
   id="rect16"
   style="fill:#1bae70;fill-opacity:1;stroke-width:0.9"
   inkscape:path-effect="#path-effect912"
   d="M 54.599998,211.17804 H 104.6 a 20,20 45 0 1 20,20 v 50 a 20,20 135 0 1 -20,20 H 54.599998 a 20,20 45 0 1 -20,-20 v -50 a 20,20 135 0 1 20,-20 z" /><rect
   x="169.60001"
   y="387.73914"
   fill="#6E83B7"
   width="307.79999"
   height="90"
   id="rect22"
   style="fill:#1bae70;fill-opacity:1;stroke-width:0.9"
   inkscape:path-effect="#path-effect918"
   d="m 189.60001,387.73914 h 267.79998 a 20,20 45 0 1 20,20 v 50 a 20,20 135 0 1 -20,20 H 189.60001 a 20,20 45 0 1 -20,-20 v -50 a 20,20 135 0 1 20,-20 z" /><rect
   x="34.599998"
   y="387.73914"
   fill="#6E83B7"
   width="90"
   height="90"
   id="rect26"
   style="fill:#1bae70;fill-opacity:1;stroke-width:0.9"
   inkscape:path-effect="#path-effect916"
   d="M 54.599998,387.73914 H 104.6 a 20,20 45 0 1 20,20 v 50 a 20,20 135 0 1 -20,20 H 54.599998 a 20,20 45 0 1 -20,-20 v -50 a 20,20 135 0 1 20,-20 z" />
</svg>
