<?xml version="1.0" encoding="UTF-8" standalone="no"?>
<svg
   id="Layer_1"
   data-name="Layer 1"
   viewBox="0 0 122.88 86.43"
   version="1.1"
   sodipodi:docname="youtube.svg"
   inkscape:version="1.2 (dc2aedaf03, 2022-05-15)"
   xmlns:inkscape="http://www.inkscape.org/namespaces/inkscape"
   xmlns:sodipodi="http://sodipodi.sourceforge.net/DTD/sodipodi-0.dtd"
   xmlns="http://www.w3.org/2000/svg"
   xmlns:svg="http://www.w3.org/2000/svg">
  <sodipodi:namedview
     id="namedview13"
     pagecolor="#ffffff"
     bordercolor="#000000"
     borderopacity="0.25"
     inkscape:showpageshadow="2"
     inkscape:pageopacity="0.0"
     inkscape:pagecheckerboard="0"
     inkscape:deskcolor="#d1d1d1"
     showgrid="false"
     inkscape:zoom="6.6595501"
     inkscape:cx="40.618359"
     inkscape:cy="46.624771"
     inkscape:window-width="1920"
     inkscape:window-height="1001"
     inkscape:window-x="-9"
     inkscape:window-y="-9"
     inkscape:window-maximized="1"
     inkscape:current-layer="Layer_1" />
  <defs
     id="defs4">
    <style
       id="style2">.cls-1,.cls-2{fill-rule:evenodd;}.cls-2{fill:#fff;}</style>
  </defs>
  <title
     id="title6">black-and-white-youtube</title>
  <path
     id="path8"
     style="fill:#1bae70;fill-opacity:1"
     class="cls-1"
     d="M 61.429688 0 C 61.429688 0 35.62967 1.25e-06 18.429688 1.25 C 16.02969 1.5399997 10.799136 1.5609424 6.1191406 6.4609375 C 2.3991443 10.180934 1.2207031 18.650391 1.2207031 18.650391 A 187.15 187.15 0 0 0 0 38.550781 L 0 47.859375 A 187.65 187.65 0 0 0 1.2207031 67.759766 C 1.2207031 67.759766 2.4198474 76.230004 6.0898438 80 C 10.769839 84.899995 16.910159 84.739766 19.660156 85.259766 C 29.490146 86.199765 61.439453 86.480469 61.439453 86.480469 C 61.439453 86.480469 87.26947 86.480936 104.43945 85.210938 C 106.84945 84.920938 112.07977 84.889995 116.75977 80 C 120.44976 76.280004 121.65039 67.800781 121.65039 67.800781 A 187.15 187.15 0 0 0 122.86914 47.900391 L 122.86914 38.539062 A 189.26 189.26 0 0 0 121.61914 18.640625 L 121.63086 18.650391 C 121.63086 18.650391 120.43047 10.180934 116.73047 6.4609375 C 112.06047 1.5709424 106.81992 1.5399997 104.41992 1.25 C 87.239939 1.25e-06 61.429688 0 61.429688 0 z M 48.710938 24.630859 L 81.900391 41.949219 L 48.710938 59.160156 L 48.710938 24.630859 z "
     inkscape:export-filename="youtube.svg"
     inkscape:export-xdpi="96"
     inkscape:export-ydpi="96" />
</svg>
